<svg xmlns="http://www.w3.org/2000/svg" viewBox="0 0 512 512" fill="none">
  <defs>
    <linearGradient id="bg" x1="0%" y1="0%" x2="100%" y2="100%">
      <stop offset="0%" style="stop-color:#10141E"/>
      <stop offset="100%" style="stop-color:#080A10"/>
    </linearGradient>
    <linearGradient id="accent" x1="0%" y1="0%" x2="100%" y2="100%">
      <stop offset="0%" style="stop-color:#4A7AFF"/>
      <stop offset="100%" style="stop-color:#6B8CFF"/>
    </linearGradient>
    <filter id="glow">
      <feGaussianBlur stdDeviation="8" result="coloredBlur"/>
      <feMerge>
        <feMergeNode in="coloredBlur"/>
        <feMergeNode in="SourceGraphic"/>
      </feMerge>
    </filter>
  </defs>

  <!-- Background -->
  <rect width="512" height="512" rx="96" fill="url(#bg)"/>

  <!-- Glow circle -->
  <circle cx="256" cy="256" r="140" fill="url(#accent)" opacity="0.15"/>

  <!-- Brain icon -->
  <g transform="translate(128, 128)" fill="url(#accent)" filter="url(#glow)">
    <path d="M128 0C93.2 0 64 25.2 64 56.3c0 10.8 3.5 20.8 9.4 29.4C60.5 94.5 51.2 108 51.2 124c0 20.2 12.6 37.5 30.4 44.5C76.8 179.8 76.8 192 76.8 192c0 26.5 21.5 48 48 48h6.4c26.5 0 48-21.5 48-48 0 0 0-12.2-4.8-23.5 17.8-7 30.4-24.3 30.4-44.5 0-16-9.3-29.5-22.2-38.3 5.9-8.6 9.4-18.6 9.4-29.4C192 25.2 162.8 0 128 0z"/>
    <circle cx="96" cy="80" r="12" fill="#ffffff"/>
    <circle cx="160" cy="80" r="12" fill="#ffffff"/>
    <path d="M104 130 C104 145 128 160 128 160 C128 160 152 145 152 130" stroke="#ffffff" stroke-width="8" stroke-linecap="round" fill="none"/>
  </g>

  <!-- AI text -->
  <text x="256" y="420" font-family="Arial, sans-serif" font-size="48" font-weight="bold" fill="#ffffff" text-anchor="middle" opacity="0.9">AI</text>
</svg>
